<svg xmlns="http://www.w3.org/2000/svg" width="933.82" height="926.756"><g color="#000"><g fill="#d44117"><path d="M537.457 77.143c0 42.605-34.538 77.143-77.143 77.143-42.605 0-77.143-34.538-77.143-77.143 0-42.605 34.538-77.143 77.143-77.143 42.605 0 77.143 34.538 77.143 77.143z" overflow="visible" enable-background="accumulate"/><path d="M460.299 159.243c-93.998 0-171.332 71.224-181 162.656l29.396-12.999c23.569-62.545 76.718-115.095 151.604-115.095 74.886 0 132.395 49.301 150.552 117.261l30.48 10.832c-9.672-91.433-87.034-162.656-181.031-162.656z" overflow="visible" enable-background="accumulate"/><path d="M460.303 157.071c-59.204 0-107.188 85.749-107.188 191.5 0 3.234.071 6.434.156 9.625 21.553-36.703 61.391-61.344 107.031-61.344 45.63 0 85.507 24.622 107.063 61.313.085-3.181.125-6.37.125-9.594 0-105.751-47.983-191.5-107.188-191.5z" overflow="visible" enable-background="accumulate"/></g><g fill="#6bb427"><path d="M383.171 843.486c0-42.605 34.538-77.143 77.143-77.143 42.605 0 77.143 34.538 77.143 77.143 0 42.605-34.538 77.143-77.143 77.143-42.605 0-77.143-34.538-77.143-77.143z" overflow="visible" enable-background="accumulate"/><path d="M460.329 761.386c93.998 0 171.332-71.224 181-162.656l-34.813 14.082c-18.152 74.46-71.301 114.012-146.188 114.012-74.886 0-129.145-42.801-147.302-111.845l-33.729-16.248c9.672 91.433 87.034 162.656 181.031 162.656z" overflow="visible" enable-background="accumulate"/><path d="M460.325 763.558c59.204 0 107.188-85.749 107.188-191.5 0-3.234-.071-6.434-.156-9.625-21.553 36.703-61.391 61.344-107.031 61.344-45.63 0-85.507-24.622-107.063-61.313-.085 3.181-.125 6.37-.125 9.594 0 105.751 47.983 191.5 107.188 191.5z" overflow="visible" enable-background="accumulate"/></g><g fill="#f2a438"><path d="M843.486 537.457c-42.605 0-77.143-34.538-77.143-77.143 0-42.605 34.538-77.143 77.143-77.143 42.605 0 77.143 34.538 77.143 77.143 0 42.605-34.538 77.143-77.143 77.143z" overflow="visible" enable-background="accumulate"/><path d="M761.386 460.299c0-93.998-71.224-171.332-162.656-181v34.813c72.294 9.487 128.094 71.301 128.094 146.188 0 74.886-55.8 136.728-128.094 146.219v34.813c91.433-9.672 162.656-87.034 162.656-181.031z" overflow="visible" enable-background="accumulate"/><path d="M763.558 460.303c0-59.204-85.749-107.188-191.5-107.188-3.234 0-6.434.071-9.625.156 36.703 21.553 61.344 61.391 61.344 107.031 0 45.63-24.622 85.507-61.313 107.063 3.181.085 6.37.125 9.594.125 105.751 0 191.5-47.983 191.5-107.188z" overflow="visible" enable-background="accumulate"/></g><g fill="#5775b1"><path d="M77.143 383.171c42.605 0 77.143 34.538 77.143 77.143 0 42.605-34.538 77.143-77.143 77.143-42.605 0-77.143-34.538-77.143-77.143 0-42.605 34.538-77.143 77.143-77.143z" overflow="visible" enable-background="accumulate"/><path d="M159.243 460.329c0 93.998 71.224 171.332 162.656 181v-34.813c-72.294-9.487-128.094-71.301-128.094-146.188 0-74.886 55.8-136.728 128.094-146.219v-34.813c-91.433 9.672-162.656 87.034-162.656 181.031z" overflow="visible" enable-background="accumulate"/><path d="M157.071 460.325c0 59.204 85.749 107.188 191.5 107.188 3.234 0 6.434-.071 9.625-.156-36.703-21.553-61.344-61.391-61.344-107.031 0-45.63 24.622-85.507 61.313-107.063-3.181-.085-6.37-.125-9.594-.125-105.751 0-191.5 47.983-191.5 107.188z" overflow="visible" enable-background="accumulate"/></g></g></svg>