<svg xmlns="http://www.w3.org/2000/svg" width="933.82" height="926.756"><g><g color="#000"><g fill="#d44117"><path d="M537.457 77.143c0 42.605-34.538 77.143-77.143 77.143-42.605 0-77.143-34.538-77.143-77.143C383.17 34.538 417.71 0 460.315 0c42.605 0 77.143 34.538 77.143 77.143z" stroke-width=".75" overflow="visible" enable-background="accumulate"/><path d="M460.3 159.243c-94 0-171.333 71.224-181 162.657l29.395-13c23.568-62.544 76.717-115.094 151.604-115.094 74.885 0 132.393 49.3 150.55 117.26l30.48 10.834c-9.672-91.433-87.034-162.657-181.03-162.657z" stroke-width="1.77" overflow="visible" enable-background="accumulate"/><path d="M460.303 157.07c-59.204 0-107.188 85.75-107.188 191.5 0 3.235.07 6.435.156 9.626 21.554-36.703 61.393-61.344 107.033-61.344 45.63 0 85.506 24.622 107.062 61.313.085-3.18.125-6.37.125-9.594 0-105.75-47.983-191.5-107.187-191.5z" stroke-width=".894" overflow="visible" enable-background="accumulate"/></g><g fill="#6bb427"><path d="M383.17 843.486c0-42.605 34.54-77.143 77.144-77.143 42.605 0 77.143 34.538 77.143 77.143 0 42.605-34.538 77.143-77.143 77.143-42.605 0-77.143-34.54-77.143-77.144z" stroke-width=".75" overflow="visible" enable-background="accumulate"/><path d="M460.33 761.386c93.997 0 171.33-71.224 181-162.657l-34.813 14.08c-18.152 74.462-71.3 114.013-146.188 114.013-74.887 0-129.146-42.8-147.302-111.845l-33.73-16.25c9.672 91.434 87.034 162.658 181.03 162.658z" stroke-width="1.77" overflow="visible" enable-background="accumulate"/><path d="M460.325 763.558c59.204 0 107.188-85.75 107.188-191.5 0-3.234-.07-6.434-.157-9.625-21.552 36.703-61.39 61.344-107.03 61.344-45.63 0-85.507-24.622-107.063-61.313-.085 3.18-.125 6.37-.125 9.594 0 105.75 47.983 191.5 107.187 191.5z" stroke-width=".894" overflow="visible" enable-background="accumulate"/></g><g fill="#f2a438"><path d="M843.486 537.457c-42.605 0-77.143-34.538-77.143-77.143 0-42.605 34.538-77.143 77.143-77.143 42.605 0 77.143 34.54 77.143 77.144 0 42.605-34.54 77.143-77.144 77.143z" stroke-width=".75" overflow="visible" enable-background="accumulate"/><path d="M761.386 460.3c0-94-71.224-171.333-162.657-181v34.81c72.293 9.488 128.093 71.302 128.093 146.19 0 74.885-55.8 136.726-128.094 146.217v34.813c91.432-9.672 162.656-87.034 162.656-181.03z" stroke-width="1.77" overflow="visible" enable-background="accumulate"/><path d="M763.558 460.303c0-59.204-85.75-107.188-191.5-107.188-3.234 0-6.434.07-9.625.156 36.703 21.554 61.344 61.393 61.344 107.033 0 45.63-24.622 85.506-61.313 107.062 3.18.085 6.37.125 9.594.125 105.75 0 191.5-47.983 191.5-107.187z" stroke-width=".894" overflow="visible" enable-background="accumulate"/></g><g fill="#5775b1"><path d="M77.143 383.17c42.605 0 77.143 34.54 77.143 77.144 0 42.605-34.538 77.143-77.143 77.143C34.538 537.457 0 502.92 0 460.314c0-42.605 34.538-77.143 77.143-77.143z" stroke-width=".75" overflow="visible" enable-background="accumulate"/><path d="M159.243 460.33c0 93.997 71.224 171.33 162.657 181v-34.813c-72.294-9.487-128.094-71.3-128.094-146.188 0-74.887 55.8-136.728 128.094-146.22V279.3c-91.433 9.672-162.657 87.034-162.657 181.03z" stroke-width="1.77" overflow="visible" enable-background="accumulate"/><path d="M157.07 460.325c0 59.204 85.75 107.188 191.5 107.188 3.235 0 6.435-.07 9.626-.157-36.703-21.552-61.344-61.39-61.344-107.03 0-45.63 24.622-85.507 61.313-107.063-3.18-.085-6.37-.125-9.594-.125-105.75 0-191.5 47.983-191.5 107.187z" stroke-width=".894" overflow="visible" enable-background="accumulate"/></g></g></g></svg>