<?xml version="1.0" encoding="UTF-8" standalone="no"?>
<!-- Created with Inkscape (http://www.inkscape.org/) -->

<svg
   xmlns:dc="http://purl.org/dc/elements/1.1/"
   xmlns:cc="http://creativecommons.org/ns#"
   xmlns:rdf="http://www.w3.org/1999/02/22-rdf-syntax-ns#"
   xmlns:svg="http://www.w3.org/2000/svg"
   xmlns="http://www.w3.org/2000/svg"
   xmlns:xlink="http://www.w3.org/1999/xlink"
   xmlns:sodipodi="http://sodipodi.sourceforge.net/DTD/sodipodi-0.dtd"
   xmlns:inkscape="http://www.inkscape.org/namespaces/inkscape"
   width="700"
   height="550"
   id="svg2"
   version="1.1"
   inkscape:version="0.48.4 r9939"
   inkscape:export-filename="/home/tobin/Dropbox/code/qoldashboard/public/images/map-blend.png"
   inkscape:export-xdpi="90"
   inkscape:export-ydpi="90"
   sodipodi:docname="map-blend.svg">
  <sodipodi:namedview
     id="base"
     pagecolor="#ffffff"
     bordercolor="#666666"
     borderopacity="1.0"
     inkscape:pageopacity="0.0"
     inkscape:pageshadow="2"
     inkscape:zoom="0.98994949"
     inkscape:cx="12.704821"
     inkscape:cy="262.2106"
     inkscape:document-units="px"
     inkscape:current-layer="layer1"
     showgrid="false"
     inkscape:window-width="1192"
     inkscape:window-height="834"
     inkscape:window-x="577"
     inkscape:window-y="132"
     inkscape:window-maximized="0" />
  <defs
     id="defs4">
    <linearGradient
       id="linearGradient3755">
      <stop
         id="stop3757"
         offset="0"
         style="stop-color:#f9f9f9;stop-opacity:1;" />
      <stop
         id="stop3759"
         offset="1"
         style="stop-color:#f9f9f9;stop-opacity:0;" />
    </linearGradient>
    <linearGradient
       gradientTransform="translate(-0.53826904,502.36218)"
       gradientUnits="userSpaceOnUse"
       y2="247.18802"
       x2="664.8349"
       y1="247.18802"
       x1="687.4248"
       id="linearGradient3761"
       xlink:href="#linearGradient3755"
       inkscape:collect="always" />
    <linearGradient
       y2="247.18802"
       x2="659.87463"
       y1="247.18802"
       x1="685.38599"
       gradientTransform="translate(-700.5383,502.36218)"
       gradientUnits="userSpaceOnUse"
       id="linearGradient3765"
       xlink:href="#linearGradient3755"
       inkscape:collect="always" />
    <linearGradient
       y2="247.18802"
       x2="659.82458"
       y1="247.18802"
       x1="685.49261"
       gradientTransform="matrix(1,0,0,1.2727273,-1202.9004,-699.32146)"
       gradientUnits="userSpaceOnUse"
       id="linearGradient3769"
       xlink:href="#linearGradient3755"
       inkscape:collect="always" />
    <linearGradient
       y2="247.18802"
       x2="660.88477"
       y1="247.18802"
       x1="689.43982"
       gradientTransform="matrix(1,0,0,1.2727273,351.82397,-699.32146)"
       gradientUnits="userSpaceOnUse"
       id="linearGradient3773"
       xlink:href="#linearGradient3755"
       inkscape:collect="always" />
    <filter
       inkscape:collect="always"
       id="filter3834">
      <feGaussianBlur
         inkscape:collect="always"
         stdDeviation="3.0708849"
         id="feGaussianBlur3836" />
    </filter>
  </defs>
  <metadata
     id="metadata7">
    <rdf:RDF>
      <cc:Work
         rdf:about="">
        <dc:format>image/svg+xml</dc:format>
        <dc:type
           rdf:resource="http://purl.org/dc/dcmitype/StillImage" />
        <dc:title></dc:title>
      </cc:Work>
    </rdf:RDF>
  </metadata>
  <g
     transform="translate(0,-502.36218)"
     id="layer1"
     inkscape:groupmode="layer"
     inkscape:label="Layer 1">
    <path
       inkscape:connector-curvature="0"
       id="path3064"
       d="m 6.0609153,507.12431 0,540.47579 687.8781647,0 0,-540.47579 -687.8781647,0 z m 102.8746347,6.87878 c 2.81217,-0.45256 4.05417,7.99487 10.13392,12.68275 8.77571,-4.42194 29.19621,-15.91019 35.62226,-8.47564 -9.14861,3.5874 19.06024,20.10045 23.61511,11.39298 7.87026,-5.88434 11.55351,-3.65476 14.80166,5.61972 6.21947,-3.34708 21.00467,-2.91436 25.3348,-3.10159 -0.24857,-0.23201 -0.47862,-0.46224 -0.76772,-0.76772 2.71189,0.53377 2.46222,0.69446 0.76772,0.76772 5.55919,5.18896 1.39319,-7.10581 4.72916,1.68899 9.80659,0.63044 15.90666,-23.21509 23.55369,-17.04341 7.08676,6.80767 32.85917,-5.56696 24.59778,-0.24567 -9.81456,-0.49084 18.28807,26.85716 23.12377,18.30247 2.48316,-9.50791 18.62953,-9.28673 15.01662,-18.42531 3.4527,9.2003 15.60365,-4.43716 24.01432,0.64489 9.68435,-1.66731 7.52623,20.72267 17.19695,18.97806 6.66829,0.48037 20.28701,-1.21151 25.39622,-1.93465 -0.003,-0.0265 0.003,-0.0342 0,-0.0614 0.53682,-0.0747 0.58923,-0.0793 0.92127,-0.12284 0.88267,-5.41786 2.34274,-20.63974 7.03232,-15.35442 -2.39216,-9.53122 13.15065,21.41428 21.5269,16.27569 9.38615,2.90979 13.87482,-24.08903 17.25838,-14.86308 -8.3886,0.0582 31.83718,3.25568 37.71046,4.32994 6.56905,-7.15929 29.12736,-2.14272 19.74579,0.21497 9.4342,2.74998 28.6915,-2.25443 20.20642,2.70237 -7.54172,-0.61532 8.31903,4.43832 11.54653,7.18587 4.94127,-4.05819 10.04529,8.02489 12.74417,-0.52205 6.18808,6.69637 17.13168,-18.50637 17.90326,-14.37174 1.60269,-6.17912 27.89014,7.97047 34.33249,14.556 -8.22599,5.37586 5.66893,4.18349 4.63703,-5.58901 4.74703,-8.6042 27.36268,-0.7558 33.84115,6.63311 9.61018,-2.05208 6.86232,-7.29484 9.88825,-16.6442 9.52015,-2.43585 29.83168,2.231 20.29855,-0.15354 -3.75398,-8.41313 23.99853,5.94656 26.99307,-0.30709 0.0883,-0.51782 0.17818,-1.04486 0.24567,-1.53544 0.037,0.61306 -0.0461,1.11854 -0.24567,1.53544 -1.66423,9.75779 -6.70928,23.61581 -4.23782,14.61741 -9.31423,-3.13234 -2.95636,34.7806 6.84808,34.11753 8.75091,4.47081 -8.50075,3.62214 -10.93235,13.14339 -2.76588,6.32297 9.77447,3.69192 14.15677,2.14962 -0.002,-0.24794 -0.0227,-0.45246 -0.0307,-0.6756 -0.20146,0.0296 -0.33437,0.018 -0.58347,0.0614 0.106,-3.39771 0.49604,-2.51362 0.58347,-0.0614 2.12911,-0.31291 1.7277,0.0783 0.0307,0.6756 0.0445,4.90388 -1.11334,14.2621 -7.06303,12.83629 4.9272,3.34382 2.62236,11.24925 1.44332,15.32372 0.4516,0.15474 0.94361,0.37992 1.44331,0.73701 -2.49703,2.95945 -2.21001,1.91249 -1.44331,-0.73701 -6.77406,-2.32117 -8.34815,17.02968 -11.0859,25.82614 -3.17102,-7.26561 7.21678,19.21459 12.34496,24.6592 0.72518,-0.18581 1.5509,-0.3415 2.54883,-0.46063 -0.36418,1.86415 -1.32013,1.76513 -2.54883,0.46063 -6.3655,1.63107 -2.66454,5.19002 4.08428,-0.49134 6.0865,-7.715 -5.13925,10.25995 -13.26623,15.78435 -0.62032,7.58455 0.27488,25.41129 4.79058,31.01593 1.93531,-1.68296 3.93869,-1.80394 4.91342,1.22836 -1.97998,0.99724 -3.59789,0.4044 -4.91342,-1.22836 -4.03559,3.50936 -7.84491,13.83169 -1.84253,16.67491 4.75336,-1.2439 5.37074,-0.20864 5.95752,0.73701 2.25625,-1.60074 4.40356,-1.97536 5.80397,0.21496 -4.64443,1.6034 -5.21719,0.73069 -5.80397,-0.21496 -6.27221,4.44993 -13.44829,18.43505 -8.04572,13.63473 4.72668,7.94717 1.42409,12.62177 -3.00947,20.26784 2.79459,3.50105 10.67621,20.86251 12.77488,28.06788 0.008,2.61887 0.5316,3.15673 1.19765,2.73309 -0.16136,-1.13374 -0.23437,-2.55507 -0.21496,-4.54491 4.84367,-5.33791 2.04814,3.37891 0.21496,4.54491 0.63546,4.46494 2.16994,3.97042 0.55276,11.63865 -8.49301,-4.94324 -7.16528,24.15809 -3.53152,33.28839 -0.22347,9.82428 -16.23345,4.32078 -10.0725,11.97645 -8.99447,-3.95804 7.51274,9.47594 0.89056,16.73632 7.91203,-1.58553 -1.34626,12.97029 0.39921,17.04341 0.0868,-0.0201 0.15677,-0.0412 0.24567,-0.0614 1.0315,-9.77255 19.98845,34.17898 15.9686,25.21196 -1.6567,9.68617 6.45516,2.90893 -0.61417,9.7347 -5.00815,-8.45488 -1.13947,10.75682 0.79843,20.39068 7.81502,-4.69671 4.98643,21.97403 -2.97876,23.58439 2.49279,0.33876 0.99616,1.57591 -0.79843,2.0575 -1.17535,3.83387 -3.66064,9.00234 -5.37405,11.4544 4.87828,2.88621 -0.60901,15.51077 -2.79451,17.50404 1.29428,7.48941 -6.51837,22.19915 -7.43154,27.91435 0.75062,0.3752 1.5528,0.9911 2.39529,1.9346 -2.19716,1.0118 -2.72262,0.114 -2.39529,-1.9346 -4.48139,-2.24 -6.84448,4.4256 -1.47402,5.7425 0.69789,-0.2642 1.54113,-0.2329 2.57954,0.215 -1.00885,0.05 -1.86121,-0.039 -2.57954,-0.215 -5.36642,2.0323 -1.68437,22.1136 -4.39137,13.8497 -9.7516,1.2137 -25.01322,-9.1329 -33.53406,-4.2378 6.3995,-7.4575 -22.28049,4.692 -21.12768,-5.067 1.56561,-9.7013 -9.90874,-18.6955 -8.3221,-8.9976 3.28504,6.8391 -9.85635,11.5412 -13.11268,9.8575 -7.27079,5.7511 -37.85792,15.0914 -33.19626,8.6906 7.19102,6.6974 -17.16585,-28.5262 -16.95129,-18.7017 -9.82679,0.028 -8.40644,4.546 -17.19695,0.1536 -1.59264,6.4523 -20.03954,9.0815 -28.8049,9.9189 -0.2733,2.3568 -8.82099,10.3982 -16.03002,9.1512 2.97122,-9.3668 -0.1517,-12.6496 -9.58116,-15.4158 0.65352,9.8051 -22.71986,4.7362 -23.09305,14.556 -7.32947,2.4941 -30.5568,-3.1605 -35.31517,-5.5583 -5.37786,5.9247 -13.36428,-6.3133 -18.36389,1.5969 1.10264,-9.5819 -13.10646,13.8246 -13.75757,5.4047 -4.90164,-2.6084 -21.01826,-13.0518 -18.21034,-19.8379 -7.69531,-6.1114 -27.75842,14.2174 -27.88364,4.3913 -3.84954,-8.4235 -19.86384,-10.2353 -19.62295,-2.4567 2.19599,0.6953 2.85163,1.3154 0.24567,1.5048 -0.14232,-0.5471 -0.23096,-1.0299 -0.24567,-1.5048 -6.06311,-1.9195 -24.16613,-4.2339 -19.96075,1.6276 -9.71188,1.4986 -26.17824,11.9601 -16.85916,15.078 -4.31419,8.8293 -25.53442,-1.416 -25.27338,-11.2394 -7.87532,1.5703 -10.52358,-10.1886 -12.74417,-9.3969 -0.10794,0.7927 -0.55965,1.7022 -1.47402,2.7024 0.50756,-1.7233 0.97725,-2.5253 1.47402,-2.7024 0.67475,-4.9557 -12.40522,-5.5191 -14.03394,2.7945 -1.81091,-6.4983 -12.11512,0.3005 -16.06073,3.2244 5.52965,8.0391 -27.72025,20.8648 -21.58832,13.2048 5.24483,-4.3269 -9.60234,-7.8561 -16.12214,-9.6732 0.88097,4.1054 -17.94083,11.8329 -23.46156,11.8536 0.38686,3.463 -11.94499,-9.0293 -19.10091,-3.9921 -0.63418,9.8063 -23.889297,0.4264 -18.609556,-7.8615 5.919866,-5.565 -19.418575,1.2575 -23.492268,6.4181 0.533479,0.9776 0.769932,1.952 0.675594,2.8866 -1.498473,-0.807 -1.528927,-1.8056 -0.675594,-2.8866 -5.047257,-9.2483 -34.932891,-19.5065 -28.129304,-13.7882 9.181955,2.2728 -16.128689,4.6953 -26.563153,6.9094 -1.196691,2.5904 -2.179984,3.8563 -1.197645,0.2457 0.357668,-0.085 0.792004,-0.1596 1.197645,-0.2457 1.946057,-4.2125 4.458041,-11.9323 -0.09208,-7.8921 4.443438,-8.7649 -5.663832,-33.63525 2.978758,-28.95846 4.734273,-3.77139 -1.122332,-7.84641 -4.422074,-9.15124 -0.05562,0.47645 -0.05818,0.96569 0.03066,1.50473 -3.151966,-2.07563 -2.088143,-2.31831 -0.03066,-1.50473 0.657278,-5.63197 10.65202,-6.99201 13.726855,-6.35673 -1.594728,-7.47689 -9.978764,-27.14034 -13.32764,-20.66706 -9.201579,-3.44929 10.508351,-20.97273 18.947359,-15.93789 2.660319,-9.45987 -25.542695,-17.60756 -17.719005,-23.55368 9.599753,2.10032 6.086631,-1.37678 15.600094,-3.83861 -2.856905,-5.65454 -4.614601,-12.76377 -7.462249,-15.35442 -2.669587,2.46789 -5.033303,3.33138 -6.080352,0.82914 2.61037,-2.31883 4.510928,-2.25693 6.080352,-0.82914 7.001872,-6.47286 16.179769,-23.99008 9.765413,-20.91273 8.889842,-4.18777 -9.96363,-16.06642 -19.377283,-18.88594 -7.818492,-5.95296 -2.681113,-22.60578 7.093744,-23.6151 -1.950203,-9.63139 7.773279,-7.78543 2.425999,-16.03002 -0.316905,1.52637 -0.44662,2.53019 -0.491342,3.19372 0.366482,1.0264 -0.113863,1.68917 0,0 -0.372761,-1.04401 -1.626291,-2.42183 -5.281921,-1.96536 0.05198,1.78522 -0.06899,2.17577 -0.737013,0.0921 0.258535,-0.0458 0.499233,-0.0624 0.737013,-0.0921 -0.17024,-5.84507 -2.560794,-27.34309 3.163011,-31.84508 -5.35349,-8.58251 -3.718787,-30.73668 4.483492,-32.02933 8.380645,-5.13142 10.564266,-21.33236 4.821289,-13.35834 -2.905057,9.38761 -25.5385682,-13.01994 -16.24498,-9.82684 -2.68531,9.45281 18.22259,3.40819 14.801664,-5.80397 9.759438,1.14894 -8.796262,-23.92528 -7.431541,-33.65689 -2.195462,9.57844 -2.40325,-8.9948 -4.851998,0.52205 -6.034539,-7.75571 -6.028368,-28.85724 -2.272455,-19.7765 9.207289,3.43402 -0.847711,-14.424 7.155162,-8.72131 9.794196,-0.80016 16.40161,-29.22479 7.585085,-33.56477 -6.578533,-5.59078 0.738329,-0.80716 -3.961441,1.53544 -0.155127,3.88139 -1.010592,5.42448 -2.702379,0.79843 1.177117,-0.19726 2.052648,-0.47457 2.702379,-0.79843 0.15435,-3.86205 -0.373842,-10.04016 -1.535443,-14.80166 0.660462,-9.80462 -2.352209,-20.96968 -9.30478,-27.91435 -2.587808,-4.23211 -1.164873,-10.12187 0.153544,-13.8804 -0.167164,-0.31511 -0.250201,-0.7447 -0.245671,-1.32048 2.752643,-4.01289 1.53901,-2.36656 0.245671,1.32048 2.395988,4.51675 21.104839,-16.2852 18.548143,-20.88201 -0.209232,0.0233 -0.812993,-0.23218 -1.934657,-0.89056 0.998003,0.008 1.625476,0.33466 1.934657,0.89056 1.32453,-0.14749 -13.453491,-11.63575 -16.951283,-5.15909 1.074731,2.28671 1.544463,3.28726 -0.337797,0.76772 0.09463,-0.27716 0.213379,-0.53735 0.337797,-0.76772 -2.283362,-4.85832 -7.568301,-16.11022 -0.890557,-15.87647 l -1.074809,-5.8961 c 5.417021,7.57507 21.609889,18.5842 26.532443,12.00716 -0.29338,-0.14778 -0.123483,-0.54523 0.706304,-1.22835 -0.199367,0.47392 -0.434523,0.86523 -0.706304,1.22835 2.388933,1.20329 37.394522,-13.71464 29.849,-18.14893 9.602268,-2.0888 16.240528,-3.07461 22.939508,4.11499 9.189009,3.48266 17.963949,-5.99155 8.137849,-6.11106 1.17669,-1.79895 2.06852,-2.63709 2.85592,-2.7638 z m 268.05753,19.89933 c -0.003,0.0176 0.003,0.0441 0,0.0614 1.28908,-0.19102 1.33597,-0.23637 0,-0.0614 z m 0,0.0614 c -0.24744,0.0367 -0.60138,0.0775 -0.92127,0.12284 0.30575,2.62826 0.58416,1.9308 0.92127,-0.12284 z M 32.439815,974.60508 c -0.354385,0.1802 -0.822879,0.37838 -1.474025,0.58347 1.327281,1.65558 1.701457,1.15033 1.474025,-0.58347 z"
       style="opacity:0.55855857;fill:#000000;fill-opacity:1;stroke:none;filter:url(#filter3834)"
       transform="matrix(1.0137917,0,0,1.0181048,-4.8270997,-12.876643)" />
    <path
       style="fill:#f9f9f9;fill-opacity:1;stroke:none"
       d="m -2e-6,502.36218 0,550.00002 L 700,1052.3622 700,502.36218 -2e-6,502.36218 z m 104.687502,7 c 2.86172,-0.46053 4.12561,8.13576 10.3125,12.90625 8.93035,-4.49987 29.71071,-16.19056 36.25,-8.625 -9.30983,3.65062 19.39612,20.45466 24.03125,11.59375 8.00895,-5.98804 11.75711,-3.71917 15.0625,5.71875 6.32907,-3.40607 21.37481,-2.96572 25.78125,-3.15625 -0.25295,-0.2361 -0.48705,-0.47039 -0.78125,-0.78125 2.75968,0.54318 2.50561,0.7067 0.78125,0.78125 5.65715,5.2804 1.41774,-7.23103 4.8125,1.71875 9.9794,0.64155 16.18697,-23.62418 23.96875,-17.34375 7.21165,6.92764 33.43822,-5.66506 25.03125,-0.25 -9.98752,-0.49948 18.61034,27.33044 23.53125,18.625 2.52692,-9.67546 18.95782,-9.45038 15.28125,-18.75 3.51354,9.36243 15.87862,-4.51535 24.4375,0.65625 9.85501,-1.69669 7.65886,21.08785 17.5,19.3125 6.78579,0.48883 20.6445,-1.23286 25.84375,-1.96875 -0.003,-0.027 0.003,-0.0348 0,-0.0625 0.54628,-0.076 0.59961,-0.0807 0.9375,-0.125 0.89823,-5.51334 2.38403,-21.00346 7.15625,-15.625 -2.43432,-9.69918 13.38239,21.79164 21.90625,16.5625 9.55155,2.96107 14.11932,-24.51353 17.5625,-15.125 -8.53642,0.0592 32.39822,3.31306 38.375,4.40625 6.68481,-7.28546 29.64064,-2.18048 20.09375,0.21875 9.60045,2.79845 29.19711,-2.29415 20.5625,2.75 -7.67462,-0.62617 8.46563,4.51653 11.75,7.3125 5.02835,-4.12971 10.22231,8.1663 12.96875,-0.53125 6.29713,6.81437 17.43358,-18.83249 18.21875,-14.625 1.63094,-6.28801 28.38163,8.11092 34.9375,14.8125 -8.37094,5.4706 5.76883,4.25722 4.71875,-5.6875 4.83068,-8.75582 27.84487,-0.76912 34.4375,6.75 9.77953,-2.08824 6.98325,-7.42339 10.0625,-16.9375 9.68791,-2.47878 30.35738,2.27031 20.65625,-0.15625 -3.82013,-8.56138 24.42144,6.05135 27.46875,-0.3125 0.0899,-0.52694 0.18132,-1.06327 0.25,-1.5625 0.0376,0.62387 -0.0469,1.13825 -0.25,1.5625 -1.69356,9.92974 -6.82752,24.03197 -4.3125,14.875 -9.47837,-3.18754 -3.00846,35.3935 6.96875,34.71875 8.90512,4.5496 -8.65055,3.68597 -11.125,13.375 -2.81462,6.4344 9.94672,3.75698 14.40625,2.1875 -0.002,-0.2523 -0.0231,-0.46043 -0.0312,-0.6875 -0.205,0.0301 -0.34026,0.0183 -0.59375,0.0625 0.10787,-3.45758 0.50478,-2.55791 0.59375,-0.0625 2.16663,-0.31842 1.75815,0.0797 0.0312,0.6875 0.0453,4.9903 -1.13296,14.51343 -7.1875,13.0625 5.01403,3.40274 2.66857,11.44748 1.46875,15.59375 0.45956,0.15747 0.96024,0.38662 1.46875,0.75 -2.54103,3.0116 -2.24896,1.94619 -1.46875,-0.75 -6.89343,-2.36207 -8.49526,17.32978 -11.28125,26.28125 -3.2269,-7.39364 7.34395,19.55319 12.5625,25.09375 0.73796,-0.18909 1.57823,-0.34752 2.59375,-0.46875 -0.3706,1.897 -1.3434,1.79624 -2.59375,0.46875 -6.47767,1.65981 -2.71149,5.28148 4.15625,-0.5 6.19376,-7.85095 -5.22981,10.44075 -13.5,16.0625 -0.63125,7.71821 0.27972,25.85909 4.875,31.5625 1.96941,-1.71262 4.00809,-1.83573 5,1.25 -2.01487,1.01482 -3.66129,0.41153 -5,-1.25 -4.10671,3.5712 -7.98316,14.07543 -1.875,16.96875 4.83712,-1.26582 5.46538,-0.21231 6.0625,0.75 2.29601,-1.62895 4.48116,-2.01017 5.90625,0.21875 -4.72628,1.63165 -5.30913,0.74356 -5.90625,-0.21875 -6.38274,4.52835 -13.68528,18.75991 -8.1875,13.875 4.80997,8.08722 1.44918,12.84419 -3.0625,20.625 2.84383,3.56275 10.86434,21.23015 13,28.5625 0.008,2.66502 0.54096,3.21236 1.21875,2.78125 -0.1642,-1.15372 -0.2385,-2.6001 -0.21875,-4.625 4.92903,-5.43198 2.08424,3.43845 0.21875,4.625 0.64666,4.54362 2.20818,4.04039 0.5625,11.84375 -8.64267,-5.03035 -7.29155,24.5838 -3.59375,33.875 -0.22741,9.9974 -16.51952,4.39692 -10.25,12.1875 -9.15297,-4.02779 7.64513,9.64292 0.90625,17.03125 8.05146,-1.61348 -1.36998,13.19885 0.40625,17.34375 0.0883,-0.0205 0.15953,-0.0419 0.25,-0.0625 1.04968,-9.94476 20.34069,34.78129 16.25,25.65625 -1.6859,9.85686 6.56891,2.96019 -0.625,9.90625 -5.0964,-8.60388 -1.15954,10.94637 0.8125,20.75 7.95274,-4.77947 5.07431,22.36126 -3.03125,24 2.53672,0.34473 1.01372,1.60368 -0.8125,2.09375 -1.19606,3.90143 -3.72514,9.16098 -5.46875,11.65625 4.96425,2.93708 -0.61974,15.78411 -2.84375,17.8125 1.31708,7.62137 -6.63324,22.59037 -7.5625,28.40627 0.76384,0.3818 1.58016,1.0086 2.4375,1.9687 -2.23588,1.0296 -2.7706,0.116 -2.4375,-1.9687 -4.56036,-2.2795 -6.9651,4.5036 -1.5,5.8437 0.71019,-0.2689 1.56829,-0.237 2.625,0.2188 -1.02663,0.051 -1.89401,-0.04 -2.625,-0.2188 -5.46099,2.0681 -1.71405,22.5033 -4.46875,14.0938 -9.92345,1.235 -25.45401,-9.2939 -34.125,-4.3125 6.51227,-7.5889 -22.67312,4.7747 -21.5,-5.1563 1.5932,-9.8723 -10.08335,-19.025 -8.46875,-9.1562 3.34293,6.9596 -10.03004,11.7446 -13.34375,10.0312 -7.39892,5.8525 -38.52506,15.3574 -33.78125,8.8438 7.31774,6.8154 -17.46834,-29.0289 -17.25,-19.0313 -9.99996,0.028 -8.55458,4.6261 -17.5,0.1563 -1.6207,6.566 -20.39268,9.2416 -29.3125,10.0937 -0.27812,2.3984 -8.97644,10.5815 -16.3125,9.3125 3.02358,-9.5319 -0.15438,-12.8725 -9.75,-15.6875 0.66503,9.9779 -23.12023,4.8197 -23.5,14.8125 -7.45863,2.5381 -31.09527,-3.2162 -35.9375,-5.6562 -5.47263,6.0291 -13.59978,-6.4246 -18.6875,1.625 1.12208,-9.7507 -13.33742,14.0682 -14,5.5 -4.98802,-2.6544 -21.38865,-13.2818 -18.53125,-20.1875 -7.83091,-6.2191 -28.24758,14.4679 -28.375,4.4687 -3.91738,-8.572 -20.21389,-10.4157 -19.96875,-2.5 2.23469,0.7075 2.90188,1.3386 0.25,1.5313 -0.14483,-0.5568 -0.23503,-1.0481 -0.25,-1.5313 -6.16995,-1.9534 -24.59199,-4.3085 -20.3125,1.6563 -9.88302,1.525 -26.63955,12.1708 -17.15625,15.3437 -4.39022,8.9848 -25.98439,-1.441 -25.71875,-11.4375 -8.0141,1.598 -10.70903,-10.3681 -12.96875,-9.5625 -0.10984,0.8067 -0.56951,1.7322 -1.5,2.75 0.51651,-1.7536 0.99448,-2.5698 1.5,-2.75 0.68664,-5.043 -12.62383,-5.6164 -14.28125,2.8438 -1.84282,-6.6129 -12.32861,0.3057 -16.34375,3.2812 5.62709,8.1807 -28.20874,21.2325 -21.96875,13.4375 5.33725,-4.4032 -9.77155,-7.9946 -16.40625,-9.8437 0.8965,4.1778 -18.25698,12.0414 -23.875,12.0625 0.39368,3.524 -12.15548,-9.1884 -19.4375,-4.0625 -0.64536,9.9791 -24.310281,0.434 -18.937501,-8 6.02419,-5.6631 -19.76077,1.2797 -23.90625,6.5312 0.54288,0.9948 0.7835,1.9864 0.6875,2.9375 -1.52488,-0.8212 -1.55587,-1.8374 -0.6875,-2.9375 -5.1362,-9.4113 -35.548481,-19.8502 -28.625001,-14.0312 9.343761,2.3129 -16.41291,4.7781 -27.03125,7.0312 -1.21778,2.636 -2.2184,3.9242 -1.21875,0.25 0.36397,-0.087 0.80596,-0.1624 1.21875,-0.25 1.98035,-4.2867 4.5366,-12.1426 -0.0937,-8.0312 4.52174,-8.9193 -5.76364,-34.22797 3.03125,-29.46877 4.8177,-3.83785 -1.14211,-7.98468 -4.5,-9.3125 -0.0566,0.48485 -0.0592,0.98271 0.0312,1.53125 -3.20751,-2.11221 -2.12494,-2.35917 -0.0312,-1.53125 0.66886,-5.73122 10.83973,-7.11522 13.96875,-6.46875 -1.62283,-7.60865 -10.15461,-27.61861 -13.5625,-21.03125 -9.36373,-3.51008 10.69353,-21.34232 19.28125,-16.21875 2.7072,-9.62658 -25.99281,-17.91784 -18.03125,-23.96875 9.76892,2.13733 6.19389,-1.40104 15.875,-3.90625 -2.90725,-5.75419 -4.69592,-12.9887 -7.59375,-15.625 -2.71663,2.51138 -5.122,3.39009 -6.1875,0.84375 2.65637,-2.35969 4.59042,-2.2967 6.1875,-0.84375 7.12526,-6.58692 16.46489,-24.41283 9.9375,-21.28125 9.0465,-4.26157 -10.13921,-16.34955 -19.71875,-19.21875 -7.95627,-6.05787 -2.72836,-23.00414 7.21875,-24.03125 -1.98457,-9.80111 7.91026,-7.92263 2.46875,-16.3125 -0.32249,1.55327 -0.45449,2.57478 -0.5,3.25 0.37294,1.04449 -0.11587,1.71893 0,0 -0.37933,-1.06241 -1.65495,-2.46451 -5.375,-2 0.0529,1.81668 -0.0702,2.21412 -0.75,0.0937 0.26309,-0.0466 0.50803,-0.0635 0.75,-0.0937 -0.17324,-5.94807 -2.60592,-27.82493 3.21875,-32.40625 -5.44783,-8.73375 -3.78432,-31.27832 4.5625,-32.59375 8.52833,-5.22185 10.75043,-21.70828 4.90625,-13.59375 -2.95625,9.55304 -25.98861,-13.24937 -16.53125,-10 -2.73263,9.61938 18.54371,3.46824 15.0625,-5.90625 9.93142,1.16918 -8.95127,-24.3469 -7.5625,-34.25 -2.23415,9.74724 -2.4456,-9.1533 -4.9375,0.53125 -6.14088,-7.89238 -6.1346,-29.36576 -2.3125,-20.125 9.36954,3.49453 -0.86265,-14.67818 7.28125,-8.875 9.96679,-0.81426 16.69064,-29.73979 7.71875,-34.15625 -6.69446,-5.6893 0.75134,-0.82138 -4.03125,1.5625 -0.15786,3.94979 -1.0284,5.52007 -2.75,0.8125 1.19786,-0.20074 2.08882,-0.48293 2.75,-0.8125 0.15707,-3.93011 -0.38043,-10.21709 -1.5625,-15.0625 0.6721,-9.97739 -2.39366,-21.3392 -9.46875,-28.40625 -2.63341,-4.30669 -1.1854,-10.30024 0.15625,-14.125 -0.17011,-0.32067 -0.25461,-0.75783 -0.25,-1.34375 2.80115,-4.08361 1.56613,-2.40827 0.25,1.34375 2.43821,4.59634 21.47675,-16.57218 18.875,-21.25 -0.21292,0.0237 -0.82732,-0.23627 -1.96875,-0.90625 1.01559,0.008 1.65412,0.34055 1.96875,0.90625 1.34787,-0.15009 -13.69057,-11.8408 -17.25,-5.25 1.09367,2.327 1.57168,3.34519 -0.34375,0.78125 0.0963,-0.28205 0.21714,-0.54682 0.34375,-0.78125 -2.3236,-4.94394 -7.70167,-16.39412 -0.90625,-16.15625 l -1.09375,-6 c 5.51248,7.70856 21.9907,18.91169 27,12.21875 -0.29855,-0.15038 -0.12566,-0.55484 0.71875,-1.25 -0.20288,0.48228 -0.44218,0.88048 -0.71875,1.25 2.43103,1.2245 38.053491,-13.95632 30.375001,-18.46875 9.77148,-2.12561 16.52672,-3.12879 23.34375,4.1875 9.350931,3.54404 18.280511,-6.09713 8.281251,-6.21875 1.19743,-1.83065 2.10497,-2.68356 2.90625,-2.8125 z m 272.78125,20.25 c -0.003,0.0179 0.003,0.0449 0,0.0625 1.3118,-0.19439 1.35952,-0.24054 0,-0.0625 z m 0,0.0625 c -0.2518,0.0373 -0.61197,0.0789 -0.9375,0.125 0.31114,2.67458 0.59445,1.96483 0.9375,-0.125 z M 26.843748,978.08093 c -0.36063,0.18337 -0.83738,0.38504 -1.5,0.59375 1.35067,1.68475 1.73144,1.1706 1.5,-0.59375 z"
       id="rect2993"
       inkscape:connector-curvature="0" />
  </g>
</svg>
